<svg xmlns="http://www.w3.org/2000/svg" width="512" height="512" fill="none" stroke="#080" stroke-width="2px">
<g class="raxis">
<circle cx="250" cy="250" r="50" />
<circle cx="250" cy="250" r="100" />
<circle cx="250" cy="250" r="150" />
<circle cx="250" cy="250" r="200" />
<circle cx="250" cy="250" r="250" />
</g>
<g class="aaxis">
<line x1="250" y1="200" x2="250" y2="0" />
<line x1="275" y1="206.699" x2="375" y2="33.4936" />
<line x1="293.301" y1="225" x2="466.506" y2="125" />
<line x1="300" y1="250" x2="500" y2="250" />
<line x1="293.301" y1="275" x2="466.506" y2="375" />
<line x1="275" y1="293.301" x2="375" y2="466.506" />
<line x1="250" y1="300" x2="250" y2="500" />
<line x1="225" y1="293.301" x2="125" y2="466.506" />
<line x1="206.699" y1="275" x2="33.4936" y2="375" />
<line x1="200" y1="250" x2="0" y2="250" />
<line x1="206.699" y1="225" x2="33.4936" y2="125" />
<line x1="225" y1="206.699" x2="125" y2="33.4936" />
</g>
<!-- <circle class="crosshair" cx="0" cy="0" r="0" />
<line class="crosshair" x1="0" y1="0" x2="0" y2="0" /> -->
</svg>