<svg xmlns="http://www.w3.org/2000/svg" fill="none" stroke="#000" stroke-width="2px" width="1024" height="1024">  <g transform="translate(0,512)"><circle cx="512" cy="0" r="512" style="fill:white;"/><path d="M 512 0 l 512 0 L 1024 0" /><path d="M 512 0 l 502.162 99.8862 L 1024 0" /><path d="M 512 0 l 473.026 195.934 L 1024 0" /><path d="M 512 0 l 425.712 284.452 L 1024 0" /><path d="M 512 0 l 362.039 362.039 L 1024 0" /><path d="M 512 0 l 284.452 425.712 L 1024 0" /><path d="M 512 0 l 195.934 473.026 L 1024 0" /><path d="M 512 0 l 99.8862 502.162 L 1024 0" /><path d="M 512 0 l 3.1351e-014 512 L 1024 0" /><path d="M 512 0 l -99.8862 502.162 L 1024 0" /><path d="M 512 0 l -195.934 473.026 L 1024 0" /><path d="M 512 0 l -284.452 425.712 L 1024 0" /><path d="M 512 0 l -362.039 362.039 L 1024 0" /><path d="M 512 0 l -425.712 284.452 L 1024 0" /><path d="M 512 0 l -473.026 195.934 L 1024 0" /><path d="M 512 0 l -502.162 99.8862 L 1024 0" /><path d="M 512 0 l -512 6.27019e-014 L 1024 0" /><circle cx="512" cy="0" r="512" /><path d="M 512 0 l -512 0 L 0 0" /><path d="M 512 0 l -502.162 99.8862 L 0 0" /><path d="M 512 0 l -473.026 195.934 L 0 0" /><path d="M 512 0 l -425.712 284.452 L 0 0" /><path d="M 512 0 l -362.039 362.039 L 0 0" /><path d="M 512 0 l -284.452 425.712 L 0 0" /><path d="M 512 0 l -195.934 473.026 L 0 0" /><path d="M 512 0 l -99.8862 502.162 L 0 0" /><path d="M 512 0 l -3.1351e-014 512 L 0 0" /><path d="M 512 0 l 99.8862 502.162 L 0 0" /><path d="M 512 0 l 195.934 473.026 L 0 0" /><path d="M 512 0 l 284.452 425.712 L 0 0" /><path d="M 512 0 l 362.039 362.039 L 0 0" /><path d="M 512 0 l 425.712 284.452 L 0 0" /><path d="M 512 0 l 473.026 195.934 L 0 0" /><path d="M 512 0 l 502.162 99.8862 L 0 0" /><path d="M 512 0 l 512 6.27019e-014 L 0 0" /></g></svg>
